# xmcd
#
# Track frame offsets:
#	150
#	23417
#	55250
#	70605
#	87792
#	106157
#	132515
#	155047
#	166480
#	178037
#	188922
#	205132
#	217192
#	230605
#	240167
#
# Disc length: 3454
#
# Revision: 1
# Processed by: cddbd v1.5.1PL0 Copyright (c) Steve Scherf et al.
# Submitted via: ExactAudioCopy v0.95a4
# Normalized: r0:TDELIM( - )
#
DISCID=c80d7c0f
DTITLE=Various Artist - Rhythm and Soul n°30
DYEAR=2000
DGENRE=Soul
TTITLE0=Bobby Brown - Get Away
TTITLE1=The Sugarhill Gang - Rapper's Delight
TTITLE2=Gap Band - Oops Up Side Your Head
TTITLE3=Luther Vandross - Never Too Much
TTITLE4=Quincy Jones - Razzamatazz
TTITLE5=Aretha Franklin - Freeway Of Your Love
TTITLE6=James Brown - Super Bad
TTITLE7=Four Tops - I'll Turn To Stone
TTITLE8=Ray Charles - Hallelujah I Love Her So
TTITLE9=Tammi Terrel and Marvin Gaye - Ain't No Mountain High Enough
TTITLE10=Marvin Gaye - That's The Way Love Is
TTITLE11=Diana Ross and The Supremes - I Hear A Symphony
TTITLE12=Jackson 5 - One More Chance
TTITLE13=Isaac Hayes - Ike's Rap II
TTITLE14=Bill Withers - Lovely Day
EXTD=
EXTT0=
EXTT1=
EXTT2=
EXTT3=
EXTT4=
EXTT5=
EXTT6=
EXTT7=
EXTT8=
EXTT9=
EXTT10=
EXTT11=
EXTT12=
EXTT13=
EXTT14=
PLAYORDER=
